HIERARCHY
ROOT Hips
{
	OFFSET 0.000000 8.830580 0.000000
	CHANNELS 6 Xposition Yposition Zposition Zrotation Yrotation Xrotation 
	JOINT Spine
	{
		OFFSET 0.000000 0.010000 0.000000
		CHANNELS 3 Zrotation Yrotation Xrotation
		JOINT Spine1
		{
			OFFSET 0.000000 2.459130 0.000000
			CHANNELS 3 Zrotation Yrotation Xrotation
			JOINT Neck
			{
				OFFSET 0.000000 2.484630 0.000000
				CHANNELS 3 Zrotation Yrotation Xrotation
				JOINT Head_virtual
				{
					OFFSET 0.000000 0.000000 0.000000
					CHANNELS 3 Zrotation Yrotation Xrotation
					JOINT Head
					{
						OFFSET 0.000000 0.927525 0.000000
						CHANNELS 3 Zrotation Yrotation Xrotation
						End Site
						{
							OFFSET 0.000000 0.000000 0.000000
						}
					}
				}
				JOINT LeftUpArm_virtual
				{
					OFFSET 0.000000 0.000000 0.000000
					CHANNELS 3 Zrotation Yrotation Xrotation
					JOINT LeftUpArm
					{
						OFFSET 1.248820 0.000000 0.000000
						CHANNELS 3 Zrotation Yrotation Xrotation
						JOINT LeftForeArm
						{
							OFFSET 2.597580 0.000000 0.000000
							CHANNELS 3 Zrotation Yrotation Xrotation
							JOINT LeftHand
							{
								OFFSET 2.455420 0.000000 0.000000
								CHANNELS 3 Zrotation Yrotation Xrotation
								End Site
								{
									OFFSET 0.000000 0.000000 0.000000
								}
							}
						}
					}
				}
				JOINT RightUpArm_virtual
				{
					OFFSET -0.000000 -0.000000 -0.000000
					CHANNELS 3 Zrotation Yrotation Xrotation
					JOINT RightUpArm
					{
						OFFSET -1.248820 -0.000000 -0.000000
						CHANNELS 3 Zrotation Yrotation Xrotation
						JOINT RightForeArm
						{
							OFFSET -2.597580 -0.000000 -0.000000
							CHANNELS 3 Zrotation Yrotation Xrotation
							JOINT RightHand
							{
								OFFSET -2.455420 -0.000000 -0.000000
								CHANNELS 3 Zrotation Yrotation Xrotation
								End Site
								{
									OFFSET 0.000000 0.000000 0.000000
								}
							}
						}
					}
				}
			}
		}
	}
	JOINT LeftUpLeg
	{
		OFFSET 1.271939 0.000000 0.000000
		CHANNELS 3 Zrotation Yrotation Xrotation
		JOINT LeftLowLeg
		{
			OFFSET 0.000000 -4.342910 0.000000
			CHANNELS 3 Zrotation Yrotation Xrotation
			JOINT LeftFoot
			{
				OFFSET 0.000000 -4.487670 0.000000
				CHANNELS 3 Zrotation Yrotation Xrotation
				JOINT LeftToeBase
				{
					OFFSET 0.000000 0.000000 1.515070
					CHANNELS 3 Zrotation Yrotation Xrotation
					End Site
					{
						OFFSET 0.000000 0.000000 0.000000
					}
				}
			}
		}
	}
	JOINT RightUpLeg
	{
		OFFSET -1.271939 0.000000 0.000000
		CHANNELS 3 Zrotation Yrotation Xrotation
		JOINT RightLowLeg
		{
			OFFSET 0.000000 -4.342910 0.000000
			CHANNELS 3 Zrotation Yrotation Xrotation
			JOINT RightFoot
			{
				OFFSET 0.000000 -4.487670 0.000000
				CHANNELS 3 Zrotation Yrotation Xrotation
				JOINT RightToeBase
				{
					OFFSET 0.000000 0.000000 1.515070
					CHANNELS 3 Zrotation Yrotation Xrotation
					End Site
					{
						OFFSET 0.000000 0.000000 0.000000
					}
				}
			}
		}
	}
}
MOTION
Frames: 8
Frame Time: 0.041667
-21.020590 4.045399 41.312736 -172.539389 7.170638 173.284944 1.120163 -1.210757 29.782021 14.679670 -3.764593 10.401894 0.000000 0.000000 0.000000 22.368198 -12.258145 -25.781476 25.471493 -4.398873 -92.439150 -32.177399 -2.061450 8.306500 -32.856201 -17.562300 9.728100 180.000000 -74.047997 -180.000000 48.093101 -4.726870 24.009501 24.306900 4.035530 19.853100 25.689301 13.037900 -12.571700 0.000000 29.341000 0.000000 -35.792500 6.414160 -8.677740 23.887320 6.114410 -26.159589 0.000000 0.000000 131.233002 -61.248401 16.523514 18.207597 0.000000 0.000000 99.724998 -13.620813 10.033160 -53.156171 0.000000 0.000000 134.113998 26.597620 30.954947 -29.924177 0.000000 0.000000 -33.609699 
-20.930193 3.980797 41.368786 -173.209162 8.023225 173.198213 1.421979 -1.258255 30.735213 14.380453 -3.476343 9.829927 0.000000 0.000000 0.000000 21.603232 -12.211128 -26.247865 25.243179 -4.231784 -92.472871 -32.199402 -2.112310 8.660100 -33.442200 -17.551800 10.003800 180.000000 -73.903999 -180.000000 48.823101 -5.065510 23.725401 24.241400 4.297460 20.232800 24.490900 13.565000 -13.197600 0.000000 28.863100 0.000000 -35.737801 6.625730 -7.353970 24.782744 6.584420 -26.185697 0.000000 0.000000 131.934998 -60.765059 15.910587 18.677988 0.000000 0.000000 99.142998 -13.620650 9.826112 -54.574224 0.000000 0.000000 135.375000 25.967596 31.617044 -30.841533 0.000000 0.000000 -32.737101 
-20.836586 3.918130 41.419890 -173.921159 9.003134 172.760503 1.353648 -1.147555 31.863143 14.730583 -3.361005 9.437230 0.000000 0.000000 0.000000 20.383228 -12.316268 -26.676665 24.927055 -4.173125 -92.476868 -32.377602 -2.212380 8.455440 -34.187302 -16.988800 10.759800 180.000000 -73.675003 180.000000 49.729099 -5.256930 22.289101 23.795900 4.709770 20.478600 23.260500 14.100600 -13.593500 0.000000 28.399900 0.000000 -35.780800 6.728280 -5.836800 25.719341 7.130391 -25.727225 0.000000 0.000000 132.550995 -60.573288 15.350035 18.716098 0.000000 0.000000 98.960999 -13.452004 9.894393 -55.528493 0.000000 0.000000 136.557999 25.109932 32.133032 -32.112126 0.000000 0.000000 -31.741301 
-20.745207 3.850970 41.470671 -174.726236 10.097029 172.628128 1.429535 -1.159174 32.747642 14.590664 -3.203470 8.824169 0.000000 0.000000 0.000000 19.278982 -12.320064 -26.883586 24.379400 -4.142035 -92.344851 -32.372101 -2.047220 8.891160 -34.683601 -16.743299 11.155500 180.000000 -73.351997 -180.000000 50.905201 -5.187960 20.770800 23.283800 5.224650 20.793501 22.338699 14.623300 -14.086700 0.000000 27.993700 0.000000 -35.952499 7.174510 -3.702250 26.526472 7.930453 -25.459608 0.000000 0.000000 133.207001 -60.559043 14.789058 18.567473 0.000000 0.000000 98.366997 -13.344867 9.970455 -56.878189 0.000000 0.000000 137.779999 24.422720 32.666391 -33.423380 0.000000 0.000000 -30.581000 
-20.651392 3.786734 41.513373 -175.366963 11.089058 171.971875 1.594574 -1.393148 33.936696 14.524931 -3.190653 8.473281 0.000000 0.000000 0.000000 17.705658 -12.277716 -26.915877 23.952941 -4.022984 -92.378284 -32.626999 -1.824160 8.839200 -34.974300 -16.122400 11.806400 180.000000 -72.989998 -180.000000 51.909901 -5.403070 19.261200 22.774700 5.970030 21.244600 21.248899 15.118200 -14.674200 0.000000 27.575500 0.000000 -35.719101 7.313020 -1.362990 27.597386 8.394935 -24.634908 0.000000 0.000000 133.794006 -60.593607 14.335078 18.180342 0.000000 0.000000 98.125999 -12.701751 9.987903 -57.456770 0.000000 0.000000 138.951004 23.611509 32.661148 -34.851459 0.000000 0.000000 -29.693100 
-20.562581 3.717810 41.560643 -176.126828 12.089537 171.966563 1.930107 -1.800477 34.285683 13.938136 -3.203622 8.301044 0.000000 0.000000 0.000000 15.955805 -12.161555 -26.741793 23.736016 -3.983939 -92.280179 -32.640301 -1.523020 8.925170 -35.231998 -15.675000 12.202000 -180.000000 -72.564003 180.000000 52.718201 -5.525610 17.590099 22.203400 6.923910 21.667601 20.340599 15.632500 -15.245100 0.000000 27.138000 0.000000 -35.523300 7.302220 0.652769 28.412094 9.249329 -24.494347 0.000000 0.000000 134.455994 -60.288272 13.772271 17.651999 0.000000 0.000000 97.913002 -12.167573 9.809862 -58.802827 0.000000 0.000000 140.182999 22.620793 32.190520 -36.445946 0.000000 0.000000 -28.802200 
-20.473249 3.651654 41.599646 -176.821105 12.880318 171.510351 2.615269 -2.577473 35.026717 12.841446 -3.186679 8.034145 0.000000 0.000000 0.000000 14.171348 -12.039818 -26.345103 23.663949 -3.868597 -92.396527 -32.829498 -1.016340 8.925250 -35.161098 -15.163000 12.728000 -180.000000 -72.211998 180.000000 53.741299 -6.045530 15.652900 21.949100 7.828980 21.868299 19.395100 15.957400 -15.594500 0.000000 26.611099 0.000000 -35.113300 7.468910 2.296530 29.306829 9.700442 -23.958615 0.000000 0.000000 135.022003 -59.835229 13.321167 17.288882 0.000000 0.000000 97.481003 -11.214985 9.377507 -59.482302 0.000000 0.000000 141.406006 21.389628 31.004765 -38.066180 0.000000 0.000000 -28.021100 
-20.384060 3.585758 41.634418 -177.562767 13.526509 170.708172 3.561762 -3.593221 35.869200 11.197170 -3.128055 7.916180 0.000000 0.000000 0.000000 12.669710 -11.972810 -25.828275 23.378588 -3.764950 -92.542838 -33.053799 -0.409524 9.099600 -34.832100 -14.807100 12.984200 180.000000 -71.794998 180.000000 54.530998 -6.677380 14.040700 21.850401 8.702280 22.134800 18.494900 16.295900 -16.182501 0.000000 25.906000 0.000000 -34.618698 7.544380 4.458300 30.171498 9.911368 -23.150540 0.000000 0.000000 135.462006 -59.455943 13.120998 16.785237 0.000000 0.000000 97.475998 -10.116887 8.881548 -59.689095 0.000000 0.000000 142.653000 20.167422 29.473961 -39.680171 0.000000 0.000000 -27.064800 
